<svg id="Capa_1" enable-background="new 0 0 512 512" height="512" viewBox="0 0 512 512" width="512" xmlns="http://www.w3.org/2000/svg"><g><path d="m.842 250.961c-2.722-6.414 1.449-13.639 8.365-14.489 33.861-4.159 124.522-10.964 186.243 24.671 72.856 42.064 60.55 127.474 60.55 127.474s-67.815 53.363-140.671 11.299c-61.722-35.634-101.159-117.551-114.487-148.955z" fill="#dd4fb1"/><path d="m101.21 336.301c-18.056-31.274-26.774-68.272-30.476-103.215 39.521.484 87.405 6.516 124.716 28.057 72.856 42.064 60.55 127.474 60.55 127.474s-17.429 13.705-44.099 21.749c-33.959-5.447-81.022-22.678-110.691-74.065z" fill="#da2ea2"/><path d="m95.407 127.15c.859-6.886 8.058-11.043 14.451-8.344 32.594 13.76 120.151 55.55 158.075 121.237 44.428 76.949-11.933 148.574-11.933 148.574s-90.209 12.997-134.636-63.952c-37.925-65.687-30.337-162.408-25.957-197.515z" fill="#e490d0"/><path d="m511.159 250.961c2.722-6.414-1.449-13.639-8.365-14.489-33.861-4.159-124.522-10.964-186.243 24.671-72.857 42.064-60.551 127.474-60.551 127.474s67.815 53.363 140.671 11.299c61.722-35.634 101.159-117.551 114.488-148.955z" fill="#dd4fb1"/><path d="m410.79 336.301c18.056-31.274 26.774-68.272 30.476-103.215-39.521.484-87.405 6.516-124.716 28.057-72.856 42.064-60.55 127.474-60.55 127.474s17.429 13.705 44.099 21.749c33.96-5.447 81.022-22.678 110.691-74.065z" fill="#da2ea2"/><path d="m416.593 127.15c-.859-6.886-8.058-11.043-14.451-8.344-32.594 13.76-120.151 55.55-158.075 121.237-44.427 76.949 11.933 148.574 11.933 148.574s90.209 12.997 134.636-63.952c37.925-65.687 30.337-162.408 25.957-197.515z" fill="#e490d0"/><path d="m244.066 240.043c-44.426 76.949 11.934 148.574 11.934 148.574s21.392 3.078 48.47-2.644c3.173-2.547 6.404-5.307 9.643-8.303 32.566-30.124 49.78-68.768 49.78-111.754 0-39.061-12.809-78.458-28.771-112.402-33.724 21.024-70.022 50.098-91.056 86.529z" fill="#df73c1"/><path d="m267.934 240.043c44.427 76.949-11.934 148.574-11.934 148.574s-21.392 3.078-48.47-2.644c-3.173-2.547-6.404-5.307-9.643-8.303-32.566-30.124-49.78-68.768-49.78-111.754 0-39.061 12.809-78.458 28.771-112.402 33.724 21.024 70.022 50.098 91.056 86.529z" fill="#df73c1"/><path d="m247.656 81.883c4.187-5.534 12.5-5.534 16.687 0 21.348 28.214 76.279 108.183 76.279 184.032 0 88.853-84.622 122.702-84.622 122.702s-84.622-33.849-84.622-122.702c0-75.849 54.931-155.818 76.278-184.032z" fill="#ffbee4"/><circle cx="173.594" cy="82.133" fill="#df73c1" r="16.924"/><circle cx="30.864" cy="164.539" fill="#da2ea2" r="16.924"/><circle cx="338.406" cy="82.133" fill="#df73c1" r="16.924"/><circle cx="481.136" cy="164.539" fill="#da2ea2" r="16.924"/><path d="m293.987 317.562c-4.188-1.118-8.494 1.375-9.611 5.566-4.747 17.815-13.229 32.78-20.522 43.309v-62.442c0-4.337-3.516-7.854-7.854-7.854-4.337 0-7.854 3.516-7.854 7.854v62.442c-7.294-10.529-15.776-25.495-20.522-43.309-1.117-4.191-5.418-6.681-9.611-5.566-4.191 1.117-6.683 5.42-5.566 9.611 5.873 22.042 16.611 39.932 25.192 51.68 10.703 6.698 18.361 9.765 18.361 9.765s7.658-3.067 18.361-9.765c8.581-11.748 19.319-29.638 25.192-51.68 1.117-4.191-1.375-8.494-5.566-9.611z" fill="#e490d0"/><path d="m502.106 380.622c4.961 4.174 4.961 11.817 0 15.991-18.955 15.946-66.071 50.182-121.194 50.182-55.118 0-102.231-34.231-121.189-50.178-4.964-4.176-4.964-11.823 0-15.998 18.958-15.947 66.071-50.178 121.189-50.178 55.123-.001 102.239 34.236 121.194 50.181z" fill="#95d6a4"/><path d="m9.894 380.622c-4.961 4.174-4.961 11.817 0 15.991 18.955 15.946 66.071 50.182 121.194 50.182 55.118 0 102.231-34.231 121.189-50.178 4.964-4.176 4.964-11.823 0-15.998-18.958-15.947-66.071-50.178-121.189-50.178-55.123-.001-102.239 34.236-121.194 50.181z" fill="#95d6a4"/><g fill="#78c2a4"><path d="m444.349 344.548c.013.586.03 1.171.03 1.759 0 46.089-41.703 84.849-98.279 96.118 11.081 2.727 22.754 4.371 34.813 4.371 55.117 0 102.229-34.229 121.188-50.177 4.97-4.181 4.957-11.831-.014-16.011-11.041-9.283-31.61-24.75-57.738-36.06z"/><path d="m194.525 344.548c.013.586.03 1.171.03 1.759 0 46.089-41.703 84.849-98.279 96.118 11.081 2.727 22.754 4.371 34.813 4.371 55.117 0 102.229-34.229 121.187-50.177 4.97-4.181 4.957-11.831-.014-16.011-11.04-9.283-31.609-24.75-57.737-36.06z"/></g></g></svg>